<svg width="21" height="21" viewBox="0 0 21 21" xmlns="http://www.w3.org/2000/svg">
  <g clip-path="url(#clip0)">
    <path d="M10.5 13.4941C10.2736 13.4941 10.0898 13.6779 10.0898 13.9043C10.0898 14.1307 10.2736 14.3145 10.5 14.3145C10.7264 14.3145 10.9102 14.1307 10.9102 13.9043C10.9102 13.6779 10.7264 13.4941 10.5 13.4941Z" fill="currentColor" stroke="currentColor" stroke-width="0.25"/>
    <path d="M15.832 17.7188H15.7904L15.462 14.6543C15.3263 13.4313 14.7465 12.306 13.8297 11.4857C13.4259 11.124 12.9704 10.834 12.4818 10.6226C14.0646 9.93616 15.2357 8.45107 15.4554 6.64511C15.4557 6.64326 15.4559 6.64133 15.4562 6.63945C15.4564 6.63744 15.4567 6.63547 15.4569 6.63342C15.4589 6.61873 15.4608 6.60368 15.4625 6.58727L15.7931 3.28125H15.832C16.2701 3.28125 16.682 3.11054 16.992 2.80059C17.3019 2.49067 17.4727 2.07871 17.4727 1.64062C17.4727 0.735984 16.7367 0 15.832 0H5.16797C4.72992 0 4.318 0.170707 4.00801 0.480662C3.69805 0.790576 3.52734 1.20254 3.52734 1.64062C3.52734 2.54527 4.26333 3.28125 5.16797 3.28125H5.20693L5.53772 6.58949C5.53924 6.60389 5.54113 6.61816 5.54297 6.63235C5.54322 6.63514 5.54367 6.63789 5.544 6.64063C5.5442 6.64211 5.54437 6.64363 5.54453 6.64511C5.76421 8.45049 6.93459 9.93521 8.51665 10.622C6.91642 11.314 5.74145 12.8211 5.53781 14.6559L5.2096 17.7188H5.16797C4.72992 17.7188 4.318 17.8895 4.00801 18.1994C3.69805 18.5093 3.52734 18.9213 3.52734 19.3594C3.52734 20.264 4.26333 21 5.16797 21H15.832C16.2701 21 16.682 20.8293 16.992 20.5193C17.3019 20.2094 17.4727 19.7975 17.4727 19.3594C17.4727 18.4547 16.7367 17.7188 15.832 17.7188ZM5.16797 2.46094C4.71565 2.46094 4.34766 2.09295 4.34766 1.64062C4.34766 1.42168 4.43305 1.21574 4.58805 1.06071C4.74309 0.905707 4.94903 0.820312 5.16797 0.820312H15.832C16.2844 0.820312 16.6523 1.1883 16.6523 1.64062C16.6523 1.85957 16.5669 2.06551 16.412 2.22054C16.2569 2.37554 16.051 2.46094 15.832 2.46094H15.4219H5.57812H5.16797ZM6.03135 3.28125H14.9687L14.6785 6.1827H6.32145L6.03135 3.28125ZM6.44138 7.00301H14.5586C14.1194 8.86196 12.4503 10.2129 10.5 10.2129C8.54967 10.2129 6.88062 8.86196 6.44138 7.00301ZM6.35324 14.7448C6.57288 12.7663 8.14583 11.2428 10.0898 11.0533V12.2637C10.0898 12.4902 10.2735 12.6738 10.5 12.6738C10.7265 12.6738 10.9102 12.4902 10.9102 12.2637V11.0538C11.789 11.1403 12.6192 11.5027 13.2826 12.0968C14.0488 12.7824 14.5333 13.7228 14.6466 14.7432L14.9312 17.3999L10.8979 15.234C10.8679 15.2179 10.8359 15.2056 10.8028 15.1973C10.6029 15.1476 10.3918 15.1493 10.1921 15.202C10.1612 15.2102 10.1314 15.222 10.1032 15.2371L6.06867 17.4005L6.35324 14.7448ZM13.7911 17.7188H7.21104L10.4409 15.9868C10.4814 15.9803 10.5227 15.9798 10.5631 15.9853L13.7911 17.7188ZM16.412 19.9393C16.2569 20.0943 16.051 20.1797 15.832 20.1797H5.16797C4.71565 20.1797 4.34766 19.8117 4.34766 19.3594C4.34766 19.1404 4.43305 18.9345 4.58805 18.7795C4.74309 18.6245 4.94903 18.5391 5.16797 18.5391H5.57509C5.57595 18.5391 5.57681 18.5391 5.57772 18.5391H5.57812H15.4202C15.4206 18.5391 15.4211 18.5391 15.4215 18.5391C15.4219 18.5391 15.4223 18.5391 15.4227 18.5391H15.832C16.2844 18.5391 16.6523 18.9071 16.6523 19.3594C16.6523 19.5783 16.5669 19.7843 16.412 19.9393Z" fill="currentColor" stroke="currentColor" stroke-width="0.25"/>
  </g>
  <defs>
    <clipPath id="clip0">
      <rect width="21" height="21" fill="currentColor"/>
    </clipPath>
  </defs>
</svg>
