<svg width="322" height="206" viewBox="0 0 322 206" xmlns="http://www.w3.org/2000/svg">
  <path d="M211.379 83.3634C212.967 81.9686 215.006 81.1998 217.116 81.1998H240.84C247.082 81.1998 250.798 77.4705 250.798 71.206V21.2369C250.798 14.9723 247.082 11.243 240.84 11.243H166.16C159.918 11.243 156.202 14.9723 156.202 21.2369V71.206C156.202 77.4705 159.918 81.1998 166.16 81.1998H181.712C186.064 82.4596 186.064 82.4596 187.319 86.8276V104.495L211.379 83.3634ZM180.691 115.132C177.754 112.921 176.117 109.019 176.117 105.56V92.4428H166.16C153.731 92.4428 145 83.6799 145 71.206V21.2369C145 8.76298 153.731 0 166.16 0H240.84C253.269 0 262 8.76298 262 21.2369V71.206C262 83.6799 253.269 92.4428 240.84 92.4428H218.051L194.871 112.8C190.31 117.29 184.981 118.361 180.691 115.132Z" fill="#3F8AE0"/>
  <path d="M41.5805 194H57.059L62.2836 176.91H87.1371L92.3617 194H107.889L83.3773 123.541H66.0434L41.5805 194ZM74.2953 137.604H75.1742L83.768 165.875H65.6527L74.2953 137.604ZM118.624 194H132.882V119.684H118.624V194ZM154.604 131.988C158.998 131.988 162.611 128.473 162.611 124.078C162.611 119.635 158.998 116.119 154.604 116.119C150.209 116.119 146.547 119.635 146.547 124.078C146.547 128.473 150.209 131.988 154.604 131.988ZM147.426 194H161.684V140.24H147.426V194ZM190.388 194.83C197.419 194.83 203.083 191.852 205.817 186.871H206.696V194H220.759V157.281C220.759 145.807 212.702 139.068 198.444 139.068C184.919 139.068 176.032 145.318 174.909 154.742L174.86 155.182H188.044L188.141 154.986C189.264 151.812 192.536 150.006 197.663 150.006C203.522 150.006 206.696 152.643 206.696 157.281V161.725L193.708 162.506C180.329 163.287 172.858 168.951 172.858 178.619V178.717C172.858 188.482 180.134 194.83 190.388 194.83ZM186.774 177.838V177.74C186.774 173.834 189.753 171.539 195.856 171.148L206.696 170.465V174.42C206.696 180.084 201.764 184.43 195.173 184.43C190.241 184.43 186.774 181.939 186.774 177.838ZM255.81 195.123C269.58 195.123 279.394 188.189 279.394 177.545V177.496C279.394 169.537 274.365 165.045 263.623 162.75L254.687 160.846C249.121 159.625 247.119 157.965 247.119 155.084V155.035C247.119 151.422 250.634 149.127 255.566 149.127C260.888 149.127 264.062 151.812 264.843 154.693L264.892 154.938H278.125V154.742C277.539 146.1 269.726 139.068 255.615 139.068C242.187 139.068 233.203 145.807 233.203 155.914V155.963C233.203 164.02 238.281 169.049 248.535 171.246L257.519 173.15C262.988 174.371 265.136 176.178 265.136 179.059V179.156C265.136 182.721 261.425 185.064 255.957 185.064C250.341 185.064 247.07 182.672 245.947 179.352L245.849 179.156H231.836L231.884 179.352C232.91 188.58 241.211 195.123 255.81 195.123Z" fill="black"/>
  <path d="M179.23 70.8789C182.851 70.8789 185.418 68.2422 185.418 64.7617C185.418 61.2812 182.851 58.6797 179.23 58.6797C175.644 58.6797 173.043 61.2812 173.043 64.7617C173.043 68.2422 175.644 70.8789 179.23 70.8789Z" fill="#4986CC"/>
  <path d="M204.184 70.8789C207.805 70.8789 210.371 68.2422 210.371 64.7617C210.371 61.2812 207.805 58.6797 204.184 58.6797C200.598 58.6797 197.996 61.2812 197.996 64.7617C197.996 68.2422 200.598 70.8789 204.184 70.8789Z" fill="#4986CC"/>
  <path d="M224.742 53.2656H234.129L235.078 19.2344H223.828L224.742 53.2656ZM229.453 71.0195C233.426 71.0195 235.852 68.7695 235.852 65.1484C235.852 61.4922 233.426 59.2422 229.453 59.2422C225.516 59.2422 223.055 61.4922 223.055 65.1484C223.055 68.7695 225.516 71.0195 229.453 71.0195Z" fill="#4986CC"/>
</svg>
