<svg width="116" height="40" viewBox="0 0 116 40" fill="none" xmlns="http://www.w3.org/2000/svg">
  <path d="M41.0547 29H45.6982L47.2656 23.873H54.7217L56.2891 29H60.9473L53.5938 7.8623H48.3936L41.0547 29ZM50.8691 12.0811H51.1328L53.7109 20.5625H48.2764L50.8691 12.0811ZM63.9578 29H68.2352V6.70508H63.9578V29ZM74.5416 10.3965C75.86 10.3965 76.9439 9.3418 76.9439 8.02344C76.9439 6.69043 75.86 5.63574 74.5416 5.63574C73.2232 5.63574 72.1246 6.69043 72.1246 8.02344C72.1246 9.3418 73.2232 10.3965 74.5416 10.3965ZM72.3883 29H76.6656V12.8721H72.3883V29ZM85.0668 29.249C87.1762 29.249 88.8754 28.3555 89.6957 26.8613H89.9594V29H94.1781V17.9844C94.1781 14.542 91.7611 12.5205 87.4838 12.5205C83.4262 12.5205 80.7602 14.3955 80.4232 17.2227L80.4086 17.3545H84.3637L84.393 17.2959C84.7299 16.3438 85.7113 15.8018 87.2494 15.8018C89.0072 15.8018 89.9594 16.5928 89.9594 17.9844V19.3174L86.0629 19.5518C82.0492 19.7861 79.808 21.4854 79.808 24.3857V24.415C79.808 27.3447 81.9906 29.249 85.0668 29.249ZM83.9828 24.1514V24.1221C83.9828 22.9502 84.8764 22.2617 86.7074 22.1445L89.9594 21.9395V23.126C89.9594 24.8252 88.4799 26.1289 86.5023 26.1289C85.0229 26.1289 83.9828 25.3818 83.9828 24.1514ZM104.484 29.3369C108.614 29.3369 111.559 27.2568 111.559 24.0635V24.0488C111.559 21.6611 110.05 20.3135 106.827 19.625L104.147 19.0537C102.477 18.6875 101.876 18.1895 101.876 17.3252V17.3105C101.876 16.2266 102.931 15.5381 104.41 15.5381C106.007 15.5381 106.959 16.3438 107.194 17.208L107.208 17.2812H111.178V17.2227C111.002 14.6299 108.658 12.5205 104.425 12.5205C100.397 12.5205 97.7014 14.542 97.7014 17.5742V17.5889C97.7014 20.0059 99.2248 21.5146 102.301 22.1738L104.996 22.7451C106.637 23.1113 107.281 23.6533 107.281 24.5176V24.5469C107.281 25.6162 106.168 26.3193 104.528 26.3193C102.843 26.3193 101.862 25.6016 101.525 24.6055L101.495 24.5469H97.2912L97.3059 24.6055C97.6135 27.374 100.104 29.3369 104.484 29.3369Z" fill="black"/>
  <path d="M17.5875 28.0877C18.0083 27.7182 18.5485 27.5145 19.1077 27.5145H25.3936C27.0474 27.5145 28.0319 26.5264 28.0319 24.8665V11.6269C28.0319 9.96703 27.0474 8.97893 25.3936 8.97893H5.60638C3.95259 8.97893 2.96809 9.96703 2.96809 11.6269V24.8665C2.96809 26.5264 3.95259 27.5145 5.60638 27.5145H9.72708C10.8802 27.8483 10.8802 27.8483 11.2128 29.0056V33.6867L17.5875 28.0877ZM9.45665 36.505C8.67833 35.9192 8.24468 34.8855 8.24468 33.9688V30.4934H5.60638C2.31336 30.4934 0 28.1716 0 24.8665V11.6269C0 8.32182 2.31336 6 5.60638 6H25.3936C28.6866 6 31 8.32182 31 11.6269V24.8665C31 28.1716 28.6866 30.4934 25.3936 30.4934H19.3555L13.2137 35.8871C12.0052 37.0767 10.5933 37.3606 9.45665 36.505Z" fill="#3F8AE0"/>
  <path d="M9.57621 24.9647C10.4987 24.9647 11.1524 24.3028 11.1524 23.4291C11.1524 22.5553 10.4987 21.9022 9.57621 21.9022C8.66273 21.9022 8 22.5553 8 23.4291C8 24.3028 8.66273 24.9647 9.57621 24.9647Z" fill="#4986CC"/>
  <path d="M15.9328 24.9647C16.8553 24.9647 17.509 24.3028 17.509 23.4291C17.509 22.5553 16.8553 21.9022 15.9328 21.9022C15.0193 21.9022 14.3566 22.5553 14.3566 23.4291C14.3566 24.3028 15.0193 24.9647 15.9328 24.9647Z" fill="#4986CC"/>
  <path d="M21.17 20.5431H23.5612L23.803 12H20.9371L21.17 20.5431ZM22.3701 25C23.3821 25 24 24.4352 24 23.5261C24 22.6083 23.3821 22.0434 22.3701 22.0434C21.367 22.0434 20.7401 22.6083 20.7401 23.5261C20.7401 24.4352 21.367 25 22.3701 25Z" fill="#4986CC"/>
</svg>
