<svg width="31" height="31" viewBox="0 0 31 31" xmlns="http://www.w3.org/2000/svg">
  <path d="M17.5875 22.0877C18.0083 21.7182 18.5485 21.5145 19.1077 21.5145H25.3936C27.0474 21.5145 28.0319 20.5264 28.0319 18.8665V5.62686C28.0319 3.96703 27.0474 2.97893 25.3936 2.97893H5.60638C3.95259 2.97893 2.96809 3.96703 2.96809 5.62686V18.8665C2.96809 20.5264 3.95259 21.5145 5.60638 21.5145H9.72708C10.8802 21.8483 10.8802 21.8483 11.2128 23.0056V27.6867L17.5875 22.0877ZM9.45665 30.505C8.67833 29.9192 8.24468 28.8855 8.24468 27.9688V24.4934H5.60638C2.31336 24.4934 0 22.1716 0 18.8665V5.62686C0 2.32182 2.31336 0 5.60638 0H25.3936C28.6866 0 31 2.32182 31 5.62686V18.8665C31 22.1716 28.6866 24.4934 25.3936 24.4934H19.3555L13.2137 29.8871C12.0052 31.0767 10.5933 31.3606 9.45665 30.505Z" fill="currentColor"/>
  <path d="M9.57621 18.9647C10.4987 18.9647 11.1524 18.3028 11.1524 17.4291C11.1524 16.5553 10.4987 15.9022 9.57621 15.9022C8.66273 15.9022 8 16.5553 8 17.4291C8 18.3028 8.66273 18.9647 9.57621 18.9647Z" fill="currentColor"/>
  <path d="M15.9328 18.9647C16.8553 18.9647 17.509 18.3028 17.509 17.4291C17.509 16.5553 16.8553 15.9022 15.9328 15.9022C15.0193 15.9022 14.3566 16.5553 14.3566 17.4291C14.3566 18.3028 15.0193 18.9647 15.9328 18.9647Z" fill="currentColor"/>
  <path d="M21.17 14.5431H23.5612L23.803 6H20.9371L21.17 14.5431ZM22.3701 19C23.3821 19 24 18.4352 24 17.5261C24 16.6083 23.3821 16.0434 22.3701 16.0434C21.367 16.0434 20.7401 16.6083 20.7401 17.5261C20.7401 18.4352 21.367 19 22.3701 19Z" fill="currentColor"/>
</svg>
