<svg width="229" height="229" viewBox="0 0 229 229" fill="none" xmlns="http://www.w3.org/2000/svg">
  <path d="M129.92 163.164C133.029 160.434 137.019 158.93 141.15 158.93H187.585C199.802 158.93 207.074 151.63 207.074 139.369V41.5662C207.074 29.3048 199.802 22.0056 187.585 22.0056H41.4149C29.1982 22.0056 21.9255 29.3048 21.9255 41.5662V139.369C21.9255 151.63 29.1982 158.93 41.4149 158.93H71.8548C80.373 161.395 80.373 161.395 82.8298 169.945V204.525L129.92 163.164ZM69.8572 225.344C64.1077 221.016 60.9043 213.38 60.9043 206.608V180.935H41.4149C17.089 180.935 0 163.784 0 139.369V41.5662C0 17.1515 17.089 0 41.4149 0H187.585C211.911 0 229 17.1515 229 41.5662V139.369C229 163.784 211.911 180.935 187.585 180.935H142.981L97.6106 220.779C88.6839 229.567 78.2536 231.664 69.8572 225.344Z" fill="#3F8AE0" fill-opacity="0.1"/>
  <path d="M61.3978 146.696C69.2386 146.696 74.7956 140.993 74.7956 133.466C74.7956 125.938 69.2386 120.312 61.3978 120.312C53.6332 120.312 48 125.938 48 133.466C48 140.993 53.6332 146.696 61.3978 146.696Z" fill="#4986CC" fill-opacity="0.1"/>
  <path d="M115.429 146.696C123.27 146.696 128.827 140.993 128.827 133.466C128.827 125.938 123.27 120.312 115.429 120.312C107.664 120.312 102.031 125.938 102.031 133.466C102.031 140.993 107.664 146.696 115.429 146.696Z" fill="#4986CC" fill-opacity="0.1"/>
  <path d="M159.945 108.602H180.27L182.325 35H157.966L159.945 108.602ZM170.145 147C178.747 147 184 142.134 184 134.302C184 126.394 178.747 121.528 170.145 121.528C161.62 121.528 156.291 126.394 156.291 134.302C156.291 142.134 161.62 147 170.145 147Z" fill="#4986CC" fill-opacity="0.1"/>
</svg>
