<svg width="85" height="101" viewBox="0 0 85 101" xmlns="http://www.w3.org/2000/svg">
  <path d="M75.1987 31.0454L79.1415 27.0855C80.6736 25.5467 80.6736 23.0516 79.1415 21.5135C77.6093 19.9747 75.1258 19.9747 73.5937 21.5135L69.6509 25.4735C63.0359 19.9377 54.9977 16.5934 46.4232 15.8105V7.88061H50.2156C52.3822 7.88061 54.1384 6.116 54.1384 3.93992C54.1384 1.76383 52.3822 0 50.2156 0H34.7844C32.6178 0 30.8616 1.76383 30.8616 3.93992C30.8616 6.116 32.6178 7.88061 34.7844 7.88061H38.5768V15.8105C17.1129 17.7709 0 35.8808 0 58.3143C0 81.9061 19.008 101 42.5004 101C65.989 101 85 81.9092 85 58.3143C85 48.2368 81.5444 38.6933 75.1987 31.0454ZM42.4996 93.1194C23.3919 93.1194 7.84563 77.5061 7.84563 58.3143C7.84563 39.1233 23.3919 23.5101 42.4996 23.5101C61.6081 23.5101 77.1536 39.1233 77.1536 58.3143C77.1536 77.5061 61.6081 93.1194 42.4996 93.1194ZM60.6805 40.0549C62.2127 41.5938 62.2127 44.0889 60.6805 45.6269L45.2739 61.1007C43.7418 62.6395 41.2575 62.6395 39.7261 61.1007C38.194 59.5619 38.194 57.0668 39.7261 55.5287L55.132 40.0549C56.6641 38.5161 59.1484 38.5161 60.6805 40.0549Z" fill="#fff" fill-opacity="0.15"/>
</svg>
